<svg width="20" height="20" viewBox="0 0 20 20" fill="none" xmlns="http://www.w3.org/2000/svg">
<path d="M12.7917 4.62501C12.1585 4.6249 11.5505 4.87333 11.0986 5.31686C10.6466 5.76038 10.3868 6.36357 10.375 6.99668L10.3517 8.30918C10.3504 8.37972 10.3343 8.4492 10.3043 8.51305C10.2742 8.5769 10.231 8.63367 10.1775 8.67964C10.124 8.7256 10.0614 8.75972 9.99371 8.77975C9.92606 8.79978 9.85494 8.80527 9.78502 8.79585L8.48335 8.61835C6.77252 8.38501 5.13252 7.59751 3.55835 6.28668C3.06085 9.04501 4.03335 10.9558 6.37752 12.43L7.83335 13.345C7.9024 13.3884 7.95978 13.4481 8.00048 13.5188C8.04117 13.5895 8.06395 13.6691 8.06683 13.7506C8.06971 13.8321 8.05259 13.9131 8.01698 13.9865C7.98137 14.0599 7.92834 14.1235 7.86252 14.1717L6.53585 15.1417C7.32502 15.1917 8.07418 15.1567 8.69585 15.0333C12.6275 14.2483 15.2417 11.29 15.2417 6.41001C15.2417 6.01168 14.3975 4.62501 12.7917 4.62501ZM8.70835 6.96668C8.7229 6.16339 8.97409 5.38224 9.43048 4.72103C9.88688 4.05983 10.5282 3.54795 11.2741 3.24949C12.02 2.95103 12.8374 2.87925 13.624 3.04314C14.4105 3.20703 15.1312 3.5993 15.6959 4.17085C16.2884 4.16668 16.7925 4.31668 17.9192 3.63251C17.6409 4.99918 17.5025 5.59335 16.9084 6.40918C16.9084 12.7767 12.9942 15.8742 9.02168 16.6667C6.29918 17.21 2.33835 16.3175 1.20502 15.1317C1.78252 15.0875 4.13252 14.835 5.49085 13.84C4.34085 13.0817 -0.232483 10.39 2.77335 3.15501C4.18418 4.80251 5.61502 5.92335 7.06502 6.51918C8.02918 6.91501 8.26668 6.90668 8.70918 6.96751L8.70835 6.96668Z" fill="#FDFEFF"/>
</svg>
